<svg width="25" height="24" viewBox="0 0 25 24" fill="none" xmlns="http://www.w3.org/2000/svg">
<path fill-rule="evenodd" clip-rule="evenodd" d="M4.66666 13V3.5H11.4167V12.9706H7.16666C7.16666 15.4771 9.01103 17.5528 11.4167 17.9147V20.463C7.62666 20.0867 4.66666 16.889 4.66666 13ZM12.9167 20.463C16.7066 20.0867 19.6667 16.889 19.6667 13V3.5H12.9167V13.0473C14.3652 13.2123 15.7547 13.8648 16.7365 15.0124L15.5967 15.9876C14.9131 15.1885 13.9428 14.7138 12.9167 14.5604V20.463ZM3.16666 2.95238C3.16666 2.4264 3.59305 2 4.11904 2H20.2143C20.7403 2 21.1667 2.4264 21.1667 2.95238V13C21.1667 17.9706 17.1372 22 12.1667 22C7.19609 22 3.16666 17.9706 3.16666 13V2.95238ZM14.2521 9.00237L16.4888 8.24121C16.9021 8.50911 17.1756 8.97425 17.1756 9.50319C17.1756 10.3334 16.502 11.0063 15.6711 11.0063C14.8402 11.0063 14.1666 10.3334 14.1666 9.50319C14.1666 9.32759 14.1967 9.15902 14.2521 9.00237ZM7.39958 10.7118L10.4113 9.71179L9.9386 8.28821L6.9269 9.28821L7.39958 10.7118Z" fill="white"/>
</svg>
