<svg width="24" height="24" viewBox="0 0 24 24" fill="none" xmlns="http://www.w3.org/2000/svg">
<path fill-rule="evenodd" clip-rule="evenodd" d="M15.5 5.5V7.5H17V5.5H18C18.8284 5.5 19.5 6.17157 19.5 7V9.01562L4.5 9.01562V7C4.5 6.17157 5.17157 5.5 6 5.5H7V7.5H8.5V5.5L15.5 5.5ZM4.5 10.5156L4.5 19C4.5 19.8284 5.17157 20.5 6 20.5H18C18.8284 20.5 19.5 19.8284 19.5 19V10.5156L4.5 10.5156ZM6 4H7V2H8.5V4L15.5 4V2H17V4H18C19.6569 4 21 5.34315 21 7V19C21 20.6569 19.6569 22 18 22H6C4.34315 22 3 20.6569 3 19V7C3 5.34315 4.34315 4 6 4Z" fill="white"/>
</svg>
