<svg width="24" height="24" viewBox="0 0 24 24" fill="none" xmlns="http://www.w3.org/2000/svg">
<path fill-rule="evenodd" clip-rule="evenodd" d="M16.875 10.1117C16.875 11.3667 16.6825 12.2428 16.0043 13.3714C15.3073 14.5314 14.1024 15.9495 12.0025 18.2013C9.89988 15.9493 8.6938 14.5311 7.99621 13.3712C7.3175 12.2426 7.125 11.3667 7.125 10.1117C7.125 7.81754 9.25296 5.62473 12 5.62473C14.747 5.62473 16.875 7.81754 16.875 10.1117ZM18 10.1117C18 12.9688 17.0666 14.4416 12.549 19.2641C12.2542 19.5789 11.7515 19.579 11.4565 19.2644C6.93348 14.4416 6 12.9689 6 10.1117C6 7.14295 8.68629 4.49973 12 4.49973C15.3137 4.49973 18 7.14295 18 10.1117ZM13.125 10.4997C13.125 11.121 12.6213 11.6247 12 11.6247C11.3787 11.6247 10.875 11.121 10.875 10.4997C10.875 9.8784 11.3787 9.37473 12 9.37473C12.6213 9.37473 13.125 9.8784 13.125 10.4997ZM14.25 10.4997C14.25 11.7424 13.2426 12.7497 12 12.7497C10.7574 12.7497 9.75 11.7424 9.75 10.4997C9.75 9.25708 10.7574 8.24973 12 8.24973C13.2426 8.24973 14.25 9.25708 14.25 10.4997Z" fill="#1F6AFB"/>
</svg>
