<svg width="152" height="32" viewBox="0 0 152 32" fill="none" xmlns="http://www.w3.org/2000/svg">
<path d="M17 5.82013C11.24 3.26013 3.93333 3.6868 1 4.22013V25.0201C8.68 24.3801 14.8667 26.8868 17 28.2201M17 5.82013C19.9333 4.75346 27.24 2.94012 33 4.22013V25.0201C30.0667 24.7535 22.76 25.0201 17 28.2201M17 5.82013V28.2201" stroke="#1F6AFB" stroke-width="2"/>
<path d="M46.2656 24.5V7.03906H52.9688C54.2266 7.03906 55.2734 7.23828 56.1094 7.63672C56.9453 8.02734 57.5703 8.56641 57.9844 9.25391C58.3984 9.93359 58.6055 10.7031 58.6055 11.5625C58.6055 12.2734 58.4688 12.8828 58.1953 13.3906C57.9297 13.8906 57.5664 14.2969 57.1055 14.6094C56.6445 14.9219 56.1289 15.1484 55.5586 15.2891V15.4648C56.1836 15.4883 56.7773 15.6758 57.3398 16.0273C57.9102 16.3711 58.375 16.8555 58.7344 17.4805C59.1016 18.1055 59.2852 18.8594 59.2852 19.7422C59.2852 20.6484 59.0664 21.4609 58.6289 22.1797C58.1992 22.8906 57.543 23.457 56.6602 23.8789C55.7852 24.293 54.6797 24.5 53.3438 24.5H46.2656ZM49.4297 21.8633H52.8281C53.9766 21.8633 54.8047 21.6406 55.3125 21.1953C55.8281 20.75 56.0859 20.1836 56.0859 19.4961C56.0859 18.9727 55.957 18.5039 55.6992 18.0898C55.4414 17.6758 55.0742 17.3477 54.5977 17.1055C54.1289 16.8633 53.5742 16.7422 52.9336 16.7422H49.4297V21.8633ZM49.4297 14.4688H52.5703C53.1094 14.4688 53.5977 14.3672 54.0352 14.1641C54.4727 13.9609 54.8164 13.6758 55.0664 13.3086C55.3242 12.9336 55.4531 12.4922 55.4531 11.9844C55.4531 11.3125 55.2148 10.7578 54.7383 10.3203C54.2617 9.875 53.5625 9.65234 52.6406 9.65234H49.4297V14.4688ZM66.7266 24.7578C65.4453 24.7578 64.3359 24.4766 63.3984 23.9141C62.4609 23.3516 61.7344 22.5625 61.2188 21.5469C60.7109 20.5312 60.457 19.3516 60.457 18.0078C60.457 16.6562 60.7109 15.4727 61.2188 14.457C61.7344 13.4336 62.4609 12.6406 63.3984 12.0781C64.3359 11.5156 65.4453 11.2344 66.7266 11.2344C68.0078 11.2344 69.1172 11.5156 70.0547 12.0781C70.9922 12.6406 71.7188 13.4336 72.2344 14.457C72.75 15.4727 73.0078 16.6562 73.0078 18.0078C73.0078 19.3516 72.75 20.5312 72.2344 21.5469C71.7188 22.5625 70.9922 23.3516 70.0547 23.9141C69.1172 24.4766 68.0078 24.7578 66.7266 24.7578ZM66.7266 22.2734C67.4375 22.2734 68.0234 22.0859 68.4844 21.7109C68.9453 21.3281 69.2891 20.8125 69.5156 20.1641C69.75 19.5156 69.8672 18.7969 69.8672 18.0078C69.8672 17.2031 69.75 16.4766 69.5156 15.8281C69.2891 15.1797 68.9453 14.668 68.4844 14.293C68.0234 13.9102 67.4375 13.7188 66.7266 13.7188C66.0312 13.7188 65.4492 13.9102 64.9805 14.293C64.5117 14.668 64.1602 15.1797 63.9258 15.8281C63.6992 16.4766 63.5859 17.2031 63.5859 18.0078C63.5859 18.7969 63.6992 19.5156 63.9258 20.1641C64.1602 20.8125 64.5117 21.3281 64.9805 21.7109C65.4492 22.0859 66.0312 22.2734 66.7266 22.2734ZM80.4141 24.7578C79.1328 24.7578 78.0234 24.4766 77.0859 23.9141C76.1484 23.3516 75.4219 22.5625 74.9062 21.5469C74.3984 20.5312 74.1445 19.3516 74.1445 18.0078C74.1445 16.6562 74.3984 15.4727 74.9062 14.457C75.4219 13.4336 76.1484 12.6406 77.0859 12.0781C78.0234 11.5156 79.1328 11.2344 80.4141 11.2344C81.6953 11.2344 82.8047 11.5156 83.7422 12.0781C84.6797 12.6406 85.4062 13.4336 85.9219 14.457C86.4375 15.4727 86.6953 16.6562 86.6953 18.0078C86.6953 19.3516 86.4375 20.5312 85.9219 21.5469C85.4062 22.5625 84.6797 23.3516 83.7422 23.9141C82.8047 24.4766 81.6953 24.7578 80.4141 24.7578ZM80.4141 22.2734C81.125 22.2734 81.7109 22.0859 82.1719 21.7109C82.6328 21.3281 82.9766 20.8125 83.2031 20.1641C83.4375 19.5156 83.5547 18.7969 83.5547 18.0078C83.5547 17.2031 83.4375 16.4766 83.2031 15.8281C82.9766 15.1797 82.6328 14.668 82.1719 14.293C81.7109 13.9102 81.125 13.7188 80.4141 13.7188C79.7188 13.7188 79.1367 13.9102 78.668 14.293C78.1992 14.668 77.8477 15.1797 77.6133 15.8281C77.3867 16.4766 77.2734 17.2031 77.2734 18.0078C77.2734 18.7969 77.3867 19.5156 77.6133 20.1641C77.8477 20.8125 78.1992 21.3281 78.668 21.7109C79.1367 22.0859 79.7188 22.2734 80.4141 22.2734ZM91.4766 16.8359V24.5H88.3945V11.3984H91.418V13.6367H91.5703C91.8672 12.9023 92.332 12.3203 92.9648 11.8906C93.6055 11.4531 94.418 11.2344 95.4023 11.2344C96.3086 11.2344 97.0977 11.4258 97.7695 11.8086C98.4414 12.1914 98.9609 12.7539 99.3281 13.4961C99.7031 14.2305 99.8906 15.1211 99.8906 16.168V24.5H96.8086V16.6484C96.8086 15.7734 96.582 15.0898 96.1289 14.5977C95.6758 14.0977 95.0508 13.8477 94.2539 13.8477C93.7148 13.8477 93.2344 13.9648 92.8125 14.1992C92.3984 14.4336 92.0703 14.7734 91.8281 15.2188C91.5938 15.6562 91.4766 16.1953 91.4766 16.8359ZM108.469 24.7695C107.109 24.7695 105.93 24.5586 104.93 24.1367C103.93 23.7148 103.148 23.1016 102.586 22.2969C102.023 21.4844 101.719 20.5 101.672 19.3438H104.789C104.836 19.9531 105.023 20.4609 105.352 20.8672C105.68 21.2656 106.109 21.5664 106.641 21.7695C107.18 21.9727 107.777 22.0742 108.434 22.0742C109.121 22.0742 109.727 21.9688 110.25 21.7578C110.773 21.5469 111.184 21.2539 111.48 20.8789C111.777 20.5039 111.926 20.0664 111.926 19.5664C111.926 19.1133 111.793 18.7422 111.527 18.4531C111.262 18.1562 110.895 17.9062 110.426 17.7031C109.957 17.5 109.406 17.3203 108.773 17.1641L106.793 16.6484C105.355 16.2812 104.223 15.7227 103.395 14.9727C102.566 14.2148 102.152 13.207 102.152 11.9492C102.152 10.918 102.43 10.0195 102.984 9.25391C103.539 8.48047 104.297 7.87891 105.258 7.44922C106.227 7.01953 107.32 6.80469 108.539 6.80469C109.781 6.80469 110.871 7.01953 111.809 7.44922C112.746 7.87891 113.48 8.47266 114.012 9.23047C114.543 9.98828 114.82 10.8594 114.844 11.8438H111.785C111.707 11.0938 111.375 10.5156 110.789 10.1094C110.211 9.69531 109.449 9.48828 108.504 9.48828C107.848 9.48828 107.281 9.58594 106.805 9.78125C106.336 9.97656 105.977 10.2461 105.727 10.5898C105.477 10.9336 105.352 11.3242 105.352 11.7617C105.352 12.2461 105.496 12.6445 105.785 12.957C106.082 13.2617 106.457 13.5078 106.91 13.6953C107.371 13.8828 107.84 14.0391 108.316 14.1641L109.945 14.5742C110.602 14.7305 111.234 14.9414 111.844 15.207C112.453 15.4648 113 15.793 113.484 16.1914C113.977 16.582 114.363 17.0586 114.645 17.6211C114.934 18.1836 115.078 18.8438 115.078 19.6016C115.078 20.6172 114.816 21.5156 114.293 22.2969C113.77 23.0703 113.016 23.6758 112.031 24.1133C111.047 24.5508 109.859 24.7695 108.469 24.7695ZM123.375 11.3984V13.7891H115.863V11.3984H123.375ZM117.703 8.28125H120.785V20.5625C120.785 21.0781 120.898 21.4609 121.125 21.7109C121.352 21.9531 121.711 22.0742 122.203 22.0742C122.336 22.0742 122.484 22.0625 122.648 22.0391C122.812 22.0156 122.961 21.9883 123.094 21.957L123.621 24.3711C123.293 24.4727 122.961 24.5469 122.625 24.5938C122.289 24.6484 121.953 24.6758 121.617 24.6758C120.398 24.6758 119.441 24.3555 118.746 23.7148C118.051 23.0664 117.703 22.1836 117.703 21.0664V8.28125ZM133.418 19.0039V11.3984H136.5V24.5H133.512V22.168H133.371C133.074 22.9023 132.59 23.5039 131.918 23.9727C131.246 24.4414 130.418 24.6719 129.434 24.6641C128.574 24.6641 127.816 24.4766 127.16 24.1016C126.512 23.7188 126 23.1602 125.625 22.4258C125.258 21.6836 125.074 20.7891 125.074 19.7422V11.3984H128.156V19.2734C128.156 20.0938 128.383 20.75 128.836 21.2422C129.297 21.7344 129.898 21.9766 130.641 21.9688C131.094 21.9688 131.531 21.8594 131.953 21.6406C132.383 21.4219 132.734 21.0938 133.008 20.6562C133.281 20.2188 133.418 19.668 133.418 19.0039ZM143.613 24.7344C142.59 24.7344 141.668 24.4727 140.848 23.9492C140.035 23.418 139.395 22.6484 138.926 21.6406C138.457 20.6328 138.223 19.4102 138.223 17.9727C138.223 16.5117 138.461 15.2812 138.938 14.2812C139.422 13.2812 140.07 12.5234 140.883 12.0078C141.695 11.4922 142.605 11.2344 143.613 11.2344C144.387 11.2344 145.02 11.3633 145.512 11.6211C146.004 11.8789 146.395 12.1914 146.684 12.5586C146.98 12.918 147.207 13.2539 147.363 13.5664H147.492V7.03906H150.562V24.5H147.551V22.4258H147.363C147.199 22.7461 146.969 23.0859 146.672 23.4453C146.375 23.7969 145.98 24.1016 145.488 24.3594C144.996 24.6094 144.371 24.7344 143.613 24.7344ZM144.469 22.2031C145.125 22.2031 145.68 22.0273 146.133 21.6758C146.594 21.3164 146.945 20.8203 147.188 20.1875C147.43 19.5469 147.551 18.8047 147.551 17.9609C147.551 17.1094 147.43 16.3711 147.188 15.7461C146.953 15.1133 146.605 14.625 146.145 14.2812C145.691 13.9375 145.133 13.7656 144.469 13.7656C143.789 13.7656 143.219 13.9453 142.758 14.3047C142.297 14.6641 141.949 15.1602 141.715 15.793C141.488 16.4258 141.375 17.1484 141.375 17.9609C141.375 18.7734 141.492 19.5 141.727 20.1406C141.961 20.7812 142.305 21.2852 142.758 21.6523C143.219 22.0195 143.789 22.2031 144.469 22.2031Z" fill="#101323"/>
</svg>
