<svg width="18" height="18" viewBox="0 0 18 18" fill="none" xmlns="http://www.w3.org/2000/svg">
<path fill-rule="evenodd" clip-rule="evenodd" d="M14.5005 8.00046C14.5005 11.5903 11.5903 14.5005 8.00046 14.5005C4.41061 14.5005 1.50046 11.5903 1.50046 8.00046C1.50046 4.41061 4.41061 1.50046 8.00046 1.50046C11.5903 1.50046 14.5005 4.41061 14.5005 8.00046ZM13.1022 14.1629C11.7175 15.3106 9.93953 16.0005 8.00046 16.0005C3.58218 16.0005 0.000457764 12.4187 0.000457764 8.00046C0.000457764 3.58218 3.58218 0.000457764 8.00046 0.000457764C12.4187 0.000457764 16.0005 3.58218 16.0005 8.00046C16.0005 9.93952 15.3106 11.7175 14.1629 13.1022L17.9995 16.9389L16.9389 17.9995L13.1022 14.1629Z" fill="white"/>
</svg>
