<svg width="20" height="18" viewBox="0 0 20 18" fill="none" xmlns="http://www.w3.org/2000/svg">
<path stroke="#fffff" fill-rule="evenodd" clip-rule="evenodd" d="M16.493 7.98276L15.5163 8.34637V9.3885V15.0003C15.5163 15.8287 14.8448 16.5003 14.0163 16.5003H13.0003V16.4998V10.9998C13.0003 9.89519 12.1049 8.99976 11.0003 8.99976H9.00029C7.89572 8.99976 7.00029 9.89519 7.00029 10.9998V16.4998V16.5003H5.99302C5.1646 16.5003 4.49302 15.8287 4.49302 15.0003V9.3885V8.34533L3.51507 7.98227L2.04613 7.43695L10.0024 1.61924L17.9551 7.43841L16.493 7.98276ZM19.3484 8.52024L17.0163 9.3885V15.0003C17.0163 16.6571 15.6732 18.0003 14.0163 18.0003H5.99302C4.33617 18.0003 2.99302 16.6571 2.99302 15.0003V9.3885L0.652476 8.5196C-0.0945733 8.24226 -0.232991 7.24524 0.410257 6.77489L9.41227 0.192534C9.76389 -0.0645769 10.2415 -0.0644963 10.593 0.192733L19.59 6.77606C20.2327 7.24629 20.0947 8.24241 19.3484 8.52024ZM9.00029 10.4998H11.0003C11.2764 10.4998 11.5003 10.7236 11.5003 10.9998V16.4998H8.50029V10.9998C8.50029 10.7236 8.72415 10.4998 9.00029 10.4998Z" fill="white"/>
</svg>
