<svg width="25" height="24" viewBox="0 0 25 24" fill="none" xmlns="http://www.w3.org/2000/svg">
<path fill-rule="evenodd" clip-rule="evenodd" d="M2.48481 10.0218L7.44989 5.14093C7.64444 4.94969 7.95638 4.94969 8.15092 5.14093L9.14855 6.12164L3.51881 11.7514L2.48481 10.7349C2.2855 10.539 2.2855 10.2177 2.48481 10.0218ZM4.58854 12.803L9.87357 17.9984C11.1232 19.2268 13.0887 19.3418 14.4731 18.2674L17.0466 16.2701C17.764 15.7134 17.8261 14.652 17.1785 14.0154L16.1248 12.9796C15.8554 12.7458 15.4753 12.6694 15.1293 12.7946L14.619 11.3841C15.5375 11.0518 16.5522 11.2874 17.2295 11.9594L17.2281 11.9608L18.2301 12.9457C18.67 13.3782 18.9461 13.9086 19.0628 14.4643L20.9787 12.7068L15.4724 7.20046L10.7315 11.8609C10.549 12.0403 10.549 12.3344 10.7315 12.5138C10.8572 12.6373 11.0425 12.6778 11.2082 12.6179L14.619 11.3841L15.1293 12.7946L11.7184 14.0284C11.01 14.2847 10.2173 14.1117 9.67999 13.5835C8.89956 12.8163 8.89956 11.5584 9.67998 10.7912L11.7893 8.71763L10.2183 7.17323L4.58854 12.803ZM12.8592 7.66593L9.20247 4.07124C8.42428 3.30625 7.17653 3.30625 6.39834 4.07124L1.43326 8.95211C0.636016 9.73583 0.636016 11.0209 1.43326 11.8046L8.82202 19.0681C10.6072 20.823 13.4151 20.9872 15.3927 19.4524L17.9663 17.4551C18.1261 17.3311 18.2697 17.1945 18.3968 17.048L18.3842 17.1222L24.1833 11.8027C25.0272 11.0286 25.05 9.70538 24.2334 8.90261L19.3193 4.07191C18.5411 3.30692 17.2934 3.30692 16.5152 4.07191L12.8592 7.66593ZM22.0851 11.6919L16.5421 6.14887L17.5668 5.14161C17.7613 4.95036 18.0732 4.95036 18.2678 5.1416L23.1818 9.9723C23.386 10.173 23.3803 10.5038 23.1693 10.6973L22.0851 11.6919Z" fill="white"/>
</svg>
